<svg id="Capa_1" enable-background="new 0 0 514.133 514.133" height="512" viewBox="0 0 514.133 514.133" width="512" xmlns="http://www.w3.org/2000/svg"><g><g><path d="m477.983 311.186-9.46 187.64c-.4 7.98-6.99 14.24-14.98 14.24h-89.84c-7.99 0-14.58-6.26-14.98-14.24l-9.53-187.64z" fill="#f5f2f1"/><path d="m477.983 311.186-9.46 187.64c-.4 7.98-6.99 14.24-14.98 14.24h-44.92v-201.88z" fill="#e8e1de"/><ellipse cx="409.69" cy="48.726" fill="#c28678" rx="47.524" ry="47.659"/><path d="m457.213 48.726c0 26.28-21.32 47.66-47.52 47.66-.36 0-.72 0-1.07-.02v-95.28c.35-.02.71-.02 1.07-.02 26.2 0 47.52 21.38 47.52 47.66z" fill="#b36e5a"/><path d="m514.133 159.696v141.49c0 8.29-6.71 15-15 15h-181.02c-8.28 0-15-6.71-15-15v-141.49c0-34.84 28.26-63.19 62.99-63.19h27.52l16.068 10 13.932-10h27.53c34.73 0 62.98 28.35 62.98 63.19z" fill="#3bc9ea"/><path d="m514.133 159.696v141.49c0 8.29-6.71 15-15 15h-90.51v-210.35l1.07.67 13.93-10h27.53c34.73 0 62.98 28.35 62.98 63.19z" fill="#13b8e5"/><path d="m423.623 96.506v135.02c0 8.29-6.71 15-15 15-8.28 0-15-6.71-15-15v-135.02z" fill="#13b8e5"/><path d="m423.623 96.506v135.02c0 8.29-6.71 15-15 15v-150.02z" fill="#00a4dc"/></g><g><path d="m326.426 311.186-9.46 187.64c-.4 7.98-6.99 14.24-14.98 14.24h-89.84c-7.99 0-14.58-6.26-14.98-14.24l-9.53-187.64z" fill="#55696e"/><path d="m326.426 311.186-9.46 187.64c-.4 7.98-6.99 14.24-14.98 14.24h-44.92v-201.88z" fill="#495959"/><ellipse cx="258.134" cy="48.726" fill="#f1d0a4" rx="47.524" ry="47.659"/><path d="m305.656 48.726c0 26.28-21.32 47.66-47.52 47.66-.36 0-.72 0-1.07-.02v-95.28c.35-.02.71-.02 1.07-.02 26.2 0 47.52 21.38 47.52 47.66z" fill="#f1ba87"/><path d="m362.576 159.696v141.49c0 8.29-6.71 15-15 15h-181.02c-8.28 0-15-6.71-15-15v-141.49c0-34.84 28.26-63.19 62.99-63.19h27.52l16.068 10 13.932-10h27.53c34.73 0 62.98 28.35 62.98 63.19z" fill="#eb8b7f"/><path d="m362.576 159.696v141.49c0 8.29-6.71 15-15 15h-90.51v-210.35l1.07.67 13.93-10h27.53c34.73 0 62.98 28.35 62.98 63.19z" fill="#f47160"/><path d="m272.066 96.506v135.02c0 8.29-6.71 15-15 15-8.28 0-15-6.71-15-15v-135.02z" fill="#f47160"/><path d="m272.066 96.506v135.02c0 8.29-6.71 15-15 15v-150.02z" fill="#fc5832"/></g><g><path d="m174.87 311.186-9.46 187.64c-.4 7.98-6.99 14.24-14.98 14.24h-89.84c-7.99 0-14.58-6.26-14.98-14.24l-9.53-187.64z" fill="#f5f2f1"/><path d="m174.87 311.186-9.46 187.64c-.4 7.98-6.99 14.24-14.98 14.24h-44.92v-201.88z" fill="#e8e1de"/><ellipse cx="106.578" cy="48.726" fill="#c28678" rx="47.524" ry="47.659"/><path d="m154.1 48.726c0 26.28-21.32 47.66-47.52 47.66-.36 0-.72 0-1.07-.02v-95.28c.35-.02.71-.02 1.07-.02 26.2 0 47.52 21.38 47.52 47.66z" fill="#b36e5a"/><path d="m211.02 159.696v141.49c0 8.29-6.71 15-15 15h-181.02c-8.28 0-15-6.71-15-15v-141.49c0-34.84 28.26-63.19 62.99-63.19h27.52l16.068 10 13.932-10h27.53c34.73 0 62.98 28.35 62.98 63.19z" fill="#3bc9ea"/><path d="m211.02 159.696v141.49c0 8.29-6.71 15-15 15h-90.51v-210.35l1.07.67 13.93-10h27.53c34.73 0 62.98 28.35 62.98 63.19z" fill="#13b8e5"/><path d="m120.51 96.506v135.02c0 8.29-6.71 15-15 15-8.28 0-15-6.71-15-15v-135.02z" fill="#13b8e5"/><path d="m120.51 96.506v135.02c0 8.29-6.71 15-15 15v-150.02z" fill="#00a4dc"/></g></g></svg>